# xmcd
#
# Track frame offsets:
#	150
#	6191
#	18609
#	32682
#	47556
#	64448
#	74412
#	99254
#	111602
#	137084
#	150094
#	160190
#	176344
#	187928
#	200699
#	211946
#	235589
#	247940
#	262964
#	280000
#	291343
#	303991
#
# Disc length: 4203 seconds
#
# Revision: 1
# Processed by: cddbd v1.4PL0 Copyright (c) Steve Scherf et al.
# Submitted via: audiograbber 1.80.04
#
DISCID=2d106916
DTITLE=Mick Jagger With The Red Devils - Mean Ol' World  (Mickboy Remaster)
DYEAR=1992
DGENRE=Blues
TTITLE0=Intro
TTITLE1=Mean Ol' World
TTITLE2=You Better Watch Yourself
TTITLE3=Checkin' Up With My Baby
TTITLE4=Still A Fool
TTITLE5=Ain't Your Business
TTITLE6=Shake 'Em On Down
TTITLE7=40 Days, 40 Nights
TTITLE8=Dream Girl
TTITLE9=Evil
TTITLE10=One Way Out
TTITLE11=Blues With A Feeling
TTITLE12=Talk To Me Baby
TTITLE13=Don't Go No Further
TTITLE14=Blues With A Feeling_Take 2
TTITLE15=Dream_Take 3
TTITLE16=Evil_Take 3
TTITLE17=Blues With A Feeling_Take 4
TTITLE18=Still A Fool_Take 3
TTITLE19=One Way Out_Take 1
TTITLE20=40 Days, 40 Nights_Take 2
TTITLE21=Evil_Take 1
EXTD=
EXTT0=
EXTT1=
EXTT2=
EXTT3=
EXTT4=
EXTT5=
EXTT6=
EXTT7=
EXTT8=
EXTT9=
EXTT10=
EXTT11=
EXTT12=
EXTT13=
EXTT14=
EXTT15=
EXTT16=
EXTT17=
EXTT18=
EXTT19=
EXTT20=
EXTT21=
PLAYORDER=
